# xmcd
#
# Track frame offsets: 
#        150
#        5545
#        18892
#        34269
#        46310
#        62251
#        84154
#        106670
#        120883
#        137381
#        152936
#        172833
#        191114
#
# Disc length: 2741 seconds
#
# Revision: 0
# Processed by: cddbd v1.5.1PL2 Copyright (c) Steve Scherf et al.
# Submitted via: ExactAudioCopy v0.95a3
#
DISCID=8b0ab30d
DTITLE=Texas Lightning - Live Im Grünspan
DYEAR=2006
DGENRE=Country
TTITLE0=Intro
TTITLE1=Bad Case Of Loving You
TTITLE2=Man Of Constant Sorrow
TTITLE3=Intro Band
TTITLE4=Dancing Queen
TTITLE5=Kiss
TTITLE6=Over The Mountains (Ueber den Wolken)
TTITLE7=The Unknown Stuntman
TTITLE8=Gentle On My Mind
TTITLE9=Ticket To Ride
TTITLE10=Man In The Mirror
TTITLE11=Like A Virgin
TTITLE12=C'est La Vie
EXTD=
EXTT0=
EXTT1=
EXTT2=
EXTT3=
EXTT4=
EXTT5=
EXTT6=
EXTT7=
EXTT8=
EXTT9=
EXTT10=
EXTT11=
EXTT12=
PLAYORDER=
